<?xml version="1.0" encoding="utf-8" standalone="no"?><!DOCTYPE svg PUBLIC "-//W3C//DTD SVG 20010904//EN" "http://www.w3.org/TR/2001/REC-SVG-20010904/DTD/svg10.dtd"><svg xmlns="http://www.w3.org/2000/svg" width="651" height="448" xmlns:xlink="http://www.w3.org/1999/xlink"><source><![CDATA[User1->Entity:Initiate transfer (scan nfc\n and send ack on ipv4)
Note right of Entity: Update DB\nobject1Euser1=>object1Euser2
Entity->User2: Initiate Transfer (scan nfc\nand send ack on ipv4)
User2-->Entity: Acknowledge (if not Entity don't \nupdate db or revert)

]]></source><desc></desc><defs><marker viewBox="0 0 5 5" markerWidth="5" markerHeight="5" orient="auto" refX="5" refY="2.5" id="markerArrowBlock"><path d="M 0 0 L 5 2.5 L 0 5 z"></path></marker><marker viewBox="0 0 9.6 16" markerWidth="4" markerHeight="16" orient="auto" refX="9.6" refY="8" id="markerArrowOpen"><path d="M 9.6,8 1.92,16 0,13.7 5.76,8 0,2.286 1.92,0 9.6,8 z"></path></marker></defs><g class="title"></g><g class="actor"><path d="M10,20C61.1,22.7 66.5,17.3 77.2,20.0C75.2,32.0 79.2,49.7 77.2,70.0C66.1,72.7 41.4,67.3 10.0,70.0C12.0,57.5 8.0,45.7 10.0,20.0" style="stroke-width: 2px;" stroke="#000000" fill="#ffffff"></path><text x="20" y="50" style="font-size: 16px; font-family: danielbd;"><tspan x="20">User1</tspan></text></g><g class="actor"><path d="M10,378.8000030517578C23.6,381.5 26.1,376.1 77.2,378.8C79.2,410.4 75.2,391.7 77.2,428.8C27.2,426.1 57.5,431.5 10.0,428.8C12.0,411.7 8.0,393.4 10.0,378.8" style="stroke-width: 2px;" stroke="#000000" fill="#ffffff"></path><text x="20" y="408.8000030517578" style="font-size: 16px; font-family: danielbd;"><tspan x="20">User1</tspan></text></g><path d="M43.6,70.0C31.3,236.0 56.0,302.5 43.6,378.8" style="stroke-width: 2px;" stroke="#000000" fill="none"></path><g class="actor"><path d="M244.3166618347168,20C300.6,23.0 264.1,17.0 319.6,20.0C321.6,46.0 317.6,28.0 319.6,70.0C289.6,67.0 291.6,73.0 244.3,70.0C246.3,60.2 242.3,58.0 244.3,20.0" style="stroke-width: 2px;" stroke="#000000" fill="#ffffff"></path><text x="254.3166618347168" y="45" style="font-size: 16px; font-family: danielbd;"><tspan x="254.3166618347168">Entity</tspan></text></g><g class="actor"><path d="M244.3166618347168,378.8000030517578C280.8,375.8 278.4,381.8 319.6,378.8C321.6,412.1 317.6,420.8 319.6,428.8C289.5,431.8 294.0,425.8 244.3,428.8C246.3,405.0 242.3,401.7 244.3,378.8" style="stroke-width: 2px;" stroke="#000000" fill="#ffffff"></path><text x="254.3166618347168" y="403.8000030517578" style="font-size: 16px; font-family: danielbd;"><tspan x="254.3166618347168">Entity</tspan></text></g><path d="M281.9,70.0C269.6,144.1 294.3,119.4 281.9,378.8" style="stroke-width: 2px;" stroke="#000000" fill="none"></path><g class="actor"><path d="M546.5833187103271,20C577.2,17.0 589.9,23.0 621.6,20.0C623.6,32.0 619.6,28.4 621.6,70.0C584.9,67.0 603.6,73.0 546.6,70.0C544.6,32.1 548.6,35.1 546.6,20.0" style="stroke-width: 2px;" stroke="#000000" fill="#ffffff"></path><text x="556.5833187103271" y="51" style="font-size: 16px; font-family: danielbd;"><tspan x="556.5833187103271">User2</tspan></text></g><g class="actor"><path d="M546.5833187103271,378.8000030517578C564.6,375.8 583.2,381.8 621.6,378.8C619.6,404.9 623.6,420.8 621.6,428.8C609.6,431.8 603.4,425.8 546.6,428.8C548.6,393.2 544.6,390.8 546.6,378.8" style="stroke-width: 2px;" stroke="#000000" fill="#ffffff"></path><text x="556.5833187103271" y="409.8000030517578" style="font-size: 16px; font-family: danielbd;"><tspan x="556.5833187103271">User2</tspan></text></g><path d="M584.1,70.0C596.5,290.7 571.8,218.0 584.1,378.8" style="stroke-width: 2px;" stroke="#000000" fill="none"></path><g class="signal"><text x="53.61666679382324" y="87.39999961853027" style="font-size: 16px; font-family: danielbd;"><tspan x="53.61666679382324">Initiate transfer (scan nfc</tspan><tspan dy="1.2em" x="53.61666679382324">and send ack on ipv4)</tspan></text><path d="M43.6,139.2C224.7,148.7 228.1,129.7 281.9,139.2" style="stroke-width: 2px; marker-end: url(&quot;#markerArrowBlock&quot;);" stroke="#000000" fill="none"></path></g><g class="note"><path d="M301.94999504089355,159.20000076293945C388.1,148.9 343.2,169.5 559.6,159.2C557.2,169.0 562.1,196.0 559.6,220.4C363.8,230.7 464.0,210.1 301.9,220.4C304.4,180.5 299.5,169.0 301.9,159.2" style="stroke-width: 2px;" stroke="#000000" fill="#ffffff"></path><text x="306.94999504089355" y="181.20000076293945" style="font-size: 16px; font-family: danielbd;"><tspan x="306.94999504089355">Update DB</tspan><tspan dy="1.2em" x="306.94999504089355">object1Euser1=&gt;object1Euser2</tspan></text></g><g class="signal"><text x="322.02499198913574" y="237.80000114440918" style="font-size: 16px; font-family: danielbd;"><tspan x="322.02499198913574">Initiate Transfer (scan nfc</tspan><tspan dy="1.2em" x="322.02499198913574">and send ack on ipv4)</tspan></text><path d="M281.9,289.6C330.3,277.5 425.9,301.7 584.1,289.6" style="stroke-width: 2px; marker-end: url(&quot;#markerArrowBlock&quot;);" stroke="#000000" fill="none"></path></g><g class="signal"><text x="291.94999504089355" y="307.00000190734863" style="font-size: 16px; font-family: danielbd;"><tspan x="291.94999504089355">Acknowledge (if not Entity don't</tspan><tspan dy="1.2em" x="291.94999504089355">update db or revert)</tspan></text><path d="M584.1,358.8C396.2,346.7 397.0,370.9 281.9,358.8" style="stroke-width: 2px; stroke-dasharray: 6px, 2px; marker-end: url(&quot;#markerArrowBlock&quot;);" stroke="#000000" fill="none"></path></g></svg>