<?xml version="1.0" encoding="utf-8" standalone="no"?><!DOCTYPE svg PUBLIC "-//W3C//DTD SVG 20010904//EN" "http://www.w3.org/TR/2001/REC-SVG-20010904/DTD/svg10.dtd"><svg xmlns="http://www.w3.org/2000/svg" width="573" height="369" xmlns:xlink="http://www.w3.org/1999/xlink"><source><![CDATA[User1->Entity: Initiate transfer
Note right of Entity: Update DB\nobject1Euser1=>Object1Euser2
Entity->User2: Initiate Transfer
User2-->Entity: Acknowledge (if not Entity don't)

]]></source><desc></desc><defs><marker viewBox="0 0 5 5" markerWidth="5" markerHeight="5" orient="auto" refX="5" refY="2.5" id="markerArrowBlock"><path d="M 0 0 L 5 2.5 L 0 5 z"></path></marker><marker viewBox="0 0 9.6 16" markerWidth="4" markerHeight="16" orient="auto" refX="9.6" refY="8" id="markerArrowOpen"><path d="M 9.6,8 1.92,16 0,13.7 5.76,8 0,2.286 1.92,0 9.6,8 z"></path></marker></defs><g class="title"></g><g class="actor"><path d="M10,20C20.8,22.7 26.1,17.3 77.2,20.0C79.2,35.7 75.2,35.4 77.2,70.0C21.3,72.7 59.6,67.3 10.0,70.0C8.0,55.4 12.0,58.0 10.0,20.0" style="stroke-width: 2px;" stroke="#000000" fill="#ffffff"></path><text x="20" y="50" style="font-size: 16px; font-family: danielbd;"><tspan x="20">User1</tspan></text></g><g class="actor"><path d="M10,299.20000076293945C33.2,296.5 37.9,301.9 77.2,299.2C75.2,315.9 79.2,341.2 77.2,349.2C37.5,346.5 61.1,351.9 10.0,349.2C8.0,307.2 12.0,337.8 10.0,299.2" style="stroke-width: 2px;" stroke="#000000" fill="#ffffff"></path><text x="20" y="329.20000076293945" style="font-size: 16px; font-family: danielbd;"><tspan x="20">User1</tspan></text></g><path d="M43.6,70.0C34.4,125.0 52.8,146.6 43.6,299.2" style="stroke-width: 2px;" stroke="#000000" fill="none"></path><g class="actor"><path d="M161.68333053588867,20C221.6,17.0 218.9,23.0 236.9,20.0C238.9,40.9 234.9,36.1 236.9,70.0C218.9,73.0 224.9,67.0 161.7,70.0C159.7,35.0 163.7,58.0 161.7,20.0" style="stroke-width: 2px;" stroke="#000000" fill="#ffffff"></path><text x="171.68333053588867" y="45" style="font-size: 16px; font-family: danielbd;"><tspan x="171.68333053588867">Entity</tspan></text></g><g class="actor"><path d="M161.68333053588867,299.20000076293945C196.0,302.2 224.9,296.2 236.9,299.2C234.9,316.1 238.9,328.5 236.9,349.2C210.6,352.2 179.7,346.2 161.7,349.2C159.7,337.2 163.7,326.5 161.7,299.2" style="stroke-width: 2px;" stroke="#000000" fill="#ffffff"></path><text x="171.68333053588867" y="324.20000076293945" style="font-size: 16px; font-family: danielbd;"><tspan x="171.68333053588867">Entity</tspan></text></g><path d="M199.3,70.0C208.5,244.2 190.1,185.1 199.3,299.2" style="stroke-width: 2px;" stroke="#000000" fill="none"></path><g class="actor"><path d="M467.9333248138428,20C525.0,23.0 531.0,17.0 543.0,20.0C545.0,56.6 541.0,51.4 543.0,70.0C499.9,67.0 525.0,73.0 467.9,70.0C469.9,52.9 465.9,32.0 467.9,20.0" style="stroke-width: 2px;" stroke="#000000" fill="#ffffff"></path><text x="477.9333248138428" y="51" style="font-size: 16px; font-family: danielbd;"><tspan x="477.9333248138428">User2</tspan></text></g><g class="actor"><path d="M467.9333248138428,299.20000076293945C509.3,302.2 479.9,296.2 543.0,299.2C545.0,307.2 541.0,327.1 543.0,349.2C479.9,352.2 531.0,346.2 467.9,349.2C469.9,319.6 465.9,341.2 467.9,299.2" style="stroke-width: 2px;" stroke="#000000" fill="#ffffff"></path><text x="477.9333248138428" y="330.20000076293945" style="font-size: 16px; font-family: danielbd;"><tspan x="477.9333248138428">User2</tspan></text></g><path d="M505.5,70.0C514.6,235.9 496.3,125.0 505.5,299.2" style="stroke-width: 2px;" stroke="#000000" fill="none"></path><g class="signal"><text x="53.61666679382324" y="101" style="font-size: 16px; font-family: danielbd;"><tspan x="53.61666679382324">Initiate transfer</tspan></text><path d="M43.6,108.0C149.8,101.8 81.0,114.2 199.3,108.0" style="stroke-width: 2px; marker-end: url(&quot;#markerArrowBlock&quot;);" stroke="#000000" fill="none"></path></g><g class="note"><path d="M219.31666374206543,128C356.9,117.4 345.6,138.6 484.3,128.0C481.9,151.5 486.8,142.7 484.3,189.2C373.2,199.8 390.1,178.6 219.3,189.2C216.9,142.7 221.8,174.5 219.3,128.0" style="stroke-width: 2px;" stroke="#000000" fill="#ffffff"></path><text x="224.31666374206543" y="150" style="font-size: 16px; font-family: danielbd;"><tspan x="224.31666374206543">Update DB</tspan><tspan dy="1.2em" x="224.31666374206543">object1Euser1=&gt;Object1Euser2</tspan></text></g><g class="signal"><text x="282.69999504089355" y="220.20000076293945" style="font-size: 16px; font-family: danielbd;"><tspan x="282.69999504089355">Initiate Transfer</tspan></text><path d="M199.3,227.2C248.3,239.4 456.5,215.0 505.5,227.2" style="stroke-width: 2px; marker-end: url(&quot;#markerArrowBlock&quot;);" stroke="#000000" fill="none"></path></g><g class="signal"><text x="209.31666374206543" y="253.20000076293945" style="font-size: 16px; font-family: danielbd;"><tspan x="209.31666374206543">Acknowledge (if not Entity don't)</tspan></text><path d="M505.5,279.2C432.0,267.0 428.4,291.4 199.3,279.2" style="stroke-width: 2px; stroke-dasharray: 6px, 2px; marker-end: url(&quot;#markerArrowBlock&quot;);" stroke="#000000" fill="none"></path></g></svg>